<?xml version="1.0" encoding="utf-8"?>
<!-- Generator: Adobe Illustrator 21.0.0, SVG Export Plug-In . SVG Version: 6.00 Build 0)  -->
<svg version="1.1" id="Layer_1" xmlns="http://www.w3.org/2000/svg" xmlns:xlink="http://www.w3.org/1999/xlink" x="0px" y="0px"
	 viewBox="0 0 48 48" style="enable-background:new 0 0 48 48;" xml:space="preserve">
<style type="text/css">
	.st0{fill:#8A898E;}
</style>
<g>
	<path class="st0" d="M43,43H5c-2.8,0-5-2.2-5-5V10c0-2.8,2.2-5,5-5h38c2.8,0,5,2.2,5,5v28C48,40.8,45.8,43,43,43z M5,7
		c-1.7,0-3,1.3-3,3v28c0,1.7,1.3,3,3,3h38c1.7,0,3-1.3,3-3V10c0-1.7-1.3-3-3-3H5z"/>
	<path class="st0" d="M47,17H1c-0.6,0-1-0.4-1-1s0.4-1,1-1h46c0.6,0,1,0.4,1,1S47.6,17,47,17z"/>
	<path class="st0" d="M8,13c-1.1,0-2-0.9-2-2s0.9-2,2-2s2,0.9,2,2S9.1,13,8,13z M8,11L8,11L8,11z"/>
	<path class="st0" d="M14,13c-1.1,0-2-0.9-2-2s0.9-2,2-2s2,0.9,2,2S15.1,13,14,13z M14,11L14,11L14,11z"/>
	<path class="st0" d="M20,13c-1.1,0-2-0.9-2-2s0.9-2,2-2s2,0.9,2,2S21.1,13,20,13z M20,11L20,11L20,11z"/>
	<path class="st0" d="M9,25H7c-0.6,0-1-0.4-1-1v-2c0-0.6,0.4-1,1-1h2c0.6,0,1,0.4,1,1v2C10,24.6,9.6,25,9,25z"/>
	<path class="st0" d="M9,31H7c-0.6,0-1-0.4-1-1v-2c0-0.6,0.4-1,1-1h2c0.6,0,1,0.4,1,1v2C10,30.6,9.6,31,9,31z"/>
	<path class="st0" d="M9,37H7c-0.6,0-1-0.4-1-1v-2c0-0.6,0.4-1,1-1h2c0.6,0,1,0.4,1,1v2C10,36.6,9.6,37,9,37z"/>
	<path class="st0" d="M17,25h-2c-0.6,0-1-0.4-1-1v-2c0-0.6,0.4-1,1-1h2c0.6,0,1,0.4,1,1v2C18,24.6,17.6,25,17,25z"/>
	<path class="st0" d="M17,31h-2c-0.6,0-1-0.4-1-1v-2c0-0.6,0.4-1,1-1h2c0.6,0,1,0.4,1,1v2C18,30.6,17.6,31,17,31z"/>
	<path class="st0" d="M17,37h-2c-0.6,0-1-0.4-1-1v-2c0-0.6,0.4-1,1-1h2c0.6,0,1,0.4,1,1v2C18,36.6,17.6,37,17,37z"/>
	<path class="st0" d="M25,25h-2c-0.6,0-1-0.4-1-1v-2c0-0.6,0.4-1,1-1h2c0.6,0,1,0.4,1,1v2C26,24.6,25.6,25,25,25z"/>
	<path class="st0" d="M25,31h-2c-0.6,0-1-0.4-1-1v-2c0-0.6,0.4-1,1-1h2c0.6,0,1,0.4,1,1v2C26,30.6,25.6,31,25,31z"/>
	<path class="st0" d="M25,37h-2c-0.6,0-1-0.4-1-1v-2c0-0.6,0.4-1,1-1h2c0.6,0,1,0.4,1,1v2C26,36.6,25.6,37,25,37z"/>
	<path class="st0" d="M33,25h-2c-0.6,0-1-0.4-1-1v-2c0-0.6,0.4-1,1-1h2c0.6,0,1,0.4,1,1v2C34,24.6,33.6,25,33,25z"/>
	<path class="st0" d="M33,31h-2c-0.6,0-1-0.4-1-1v-2c0-0.6,0.4-1,1-1h2c0.6,0,1,0.4,1,1v2C34,30.6,33.6,31,33,31z"/>
	<path class="st0" d="M33,37h-2c-0.6,0-1-0.4-1-1v-2c0-0.6,0.4-1,1-1h2c0.6,0,1,0.4,1,1v2C34,36.6,33.6,37,33,37z"/>
	<path class="st0" d="M41,25h-2c-0.6,0-1-0.4-1-1v-2c0-0.6,0.4-1,1-1h2c0.6,0,1,0.4,1,1v2C42,24.6,41.6,25,41,25z"/>
	<path class="st0" d="M41,31h-2c-0.6,0-1-0.4-1-1v-2c0-0.6,0.4-1,1-1h2c0.6,0,1,0.4,1,1v2C42,30.6,41.6,31,41,31z"/>
	<path class="st0" d="M41,37h-2c-0.6,0-1-0.4-1-1v-2c0-0.6,0.4-1,1-1h2c0.6,0,1,0.4,1,1v2C42,36.6,41.6,37,41,37z"/>
</g>
</svg>
