<?xml version="1.0" encoding="UTF-8"?>
<svg width="18px" height="18px" viewBox="0 0 18 18" version="1.1" xmlns="http://www.w3.org/2000/svg" xmlns:xlink="http://www.w3.org/1999/xlink">
    <!-- Generator: Sketch 40.3 (33839) - http://www.bohemiancoding.com/sketch -->
    <title>Fill 1743</title>
    <desc>Created with Sketch.</desc>
    <defs></defs>
    <g id="Design-Guide" stroke="none" stroke-width="1" fill="none" fill-rule="evenodd">
        <g id="STANDARD" transform="translate(-770.000000, -441.000000)" fill="#C84A54">
            <g id="//-DIALOG-//" transform="translate(737.000000, 252.000000)">
                <g id="::-error" transform="translate(32.000000, 188.000000)">
                    <g id="Group-1409">
                        <path d="M10.9723475,15.9584841 C9.42409496,15.9584841 8.9778646,15.7353689 8.9778646,15.9584841 C8.9778646,15.1854004 9.42409496,14.9612426 10.9723475,14.9612426 C10.5250745,14.9612426 10.9723475,15.1854004 10.9723475,15.9584841 C10.9723475,15.7353689 10.5250745,15.9584841 10.9723475,15.9584841 L10.9723475,15.9584841 Z M8.9778646,6.98331121 C8.97985908,7.1627555 9.42662176,6.98331121 10.9723475,6.98331121 C10.5255782,6.98331121 10.9743353,7.1627555 10.9723475,6.98331121 L10.9723475,13.9143469 C10.9743353,13.7349026 10.5255782,13.9143469 10.9723475,13.9143469 C9.42662176,13.9143469 8.97985908,13.7349026 8.9778646,13.9143469 L8.9778646,6.98331121 Z M18.9502789,17.8943057 L10.5030574,0.999862646 C10.1912809,0.933656917 9.75815073,0.933656917 9.44715469,0.999862646 L0.99993318,17.8943057 C0.912149331,18.6424201 1.09944887,18.9502083 0.99993318,18.9502083 L18.9502789,18.9502083 C18.8507632,18.9502083 19.0380627,18.6424201 18.9502789,17.8943057 L18.9502789,17.8943057 Z" id="Fill-1743"></path>
                    </g>
                </g>
            </g>
        </g>
    </g>
</svg>