<?xml version="1.0" encoding="utf-8"?>
<!-- Generator: Adobe Illustrator 21.0.0, SVG Export Plug-In . SVG Version: 6.00 Build 0)  -->
<svg version="1.1" id="Layer_1" xmlns="http://www.w3.org/2000/svg" xmlns:xlink="http://www.w3.org/1999/xlink" x="0px" y="0px"
	 viewBox="0 0 48 48" style="enable-background:new 0 0 48 48;" xml:space="preserve">
<style type="text/css">
	.st0{fill:#8A898E;}
</style>
<g>
	<path class="st0" d="M24,48C10.8,48,0,37.2,0,24S10.8,0,24,0s24,10.8,24,24S37.2,48,24,48z M24,2C11.9,2,2,11.9,2,24s9.9,22,22,22
		s22-9.9,22-22S36.1,2,24,2z"/>
	<g>
		<path class="st0" d="M24,39.6c-0.6,0-1-0.4-1-1V11.5c0-0.6,0.4-1,1-1s1,0.4,1,1v27.2C25,39.2,24.6,39.6,24,39.6z"/>
		<path class="st0" d="M24,39.6c-0.3,0-0.5-0.1-0.7-0.3l-9.4-9.4c-0.4-0.4-0.4-1,0-1.4s1-0.4,1.4,0l8.7,8.7l8.7-8.7
			c0.4-0.4,1-0.4,1.4,0s0.4,1,0,1.4l-9.4,9.4C24.5,39.5,24.3,39.6,24,39.6z"/>
	</g>
</g>
</svg>
