<?xml version="1.0" encoding="UTF-8"?>
<svg width="103px" height="16px" viewBox="0 0 103 16" version="1.1" xmlns="http://www.w3.org/2000/svg" xmlns:xlink="http://www.w3.org/1999/xlink">
    <!-- Generator: Sketch 41.2 (35397) - http://www.bohemiancoding.com/sketch -->
    <title>// VMWARE LOGO //</title>
    <desc>Created with Sketch.</desc>
    <defs>
        <polygon id="path-1" points="0.0002077007 16.8 38.5047535 16.8 38.5047535 1.1424 0.0002077007 1.1424 0.0002077007 16.8"></polygon>
        <polygon id="path-3" points="4.39905814 3.90456 4.39905814 0.21936 0.742917442 0.21936 0.742917442 3.90456 4.39905814 3.90456"></polygon>
    </defs>
    <g id="Horizon-HTML-Access" stroke="none" stroke-width="1" fill="none" fill-rule="evenodd">
        <g id="STANDARD" transform="translate(-908.000000, -1033.000000)">
            <g id="//-VMWARE-LOGO-//" transform="translate(908.000000, 1032.000000)">
                <path d="M44.0793291,15.71196 L39.5868523,3.17796 C39.5281663,3.00396 39.4431314,2.77596 39.4431314,2.57556 C39.4431314,2.03196 39.9018407,1.51596 40.5581663,1.51596 C41.1306547,1.51596 41.5043291,1.88796 41.6755965,2.43156 L45.3979686,13.23276 L49.1454919,2.40156 C49.3167593,1.88796 49.6616895,1.51596 50.2317826,1.51596 L50.3467593,1.51596 C50.9491895,1.51596 51.3216663,1.88796 51.491736,2.40156 L55.2117128,13.23276 L58.9927709,2.37516 C59.1364919,1.91556 59.4490849,1.51596 60.0515151,1.51596 C60.6802942,1.51596 61.1390035,2.00076 61.1390035,2.54676 C61.1390035,2.74716 61.0527709,2.97516 60.9964802,3.14916 L56.4752593,15.71196 C56.2429105,16.36836 55.7865965,16.71276 55.2715965,16.71276 L55.185364,16.71276 C54.6128756,16.71276 54.1829105,16.36836 53.9817012,15.71196 L50.2916663,5.06076 L46.5692942,15.71196 C46.3692826,16.36836 45.9393174,16.71276 45.3680267,16.71276 L45.308143,16.71276 C44.7655965,16.71276 44.3080849,16.36836 44.0793291,15.71196" id="Fill-1" fill="#FFFFFF"></path>
                <path d="M76.8282988,2.60856 C76.8282988,2.00376 77.3145547,1.48656 77.9157872,1.48656 C78.549357,1.48656 79.0356128,1.97496 79.0356128,2.60856 L79.0356128,5.15256 C80.1242988,2.68176 82.5388105,1.51536 84.1389035,1.51536 C84.8000198,1.51536 85.2311826,2.00376 85.2311826,2.63496 C85.2311826,3.23856 84.8299616,3.66816 84.2526826,3.75576 C81.38545,4.10016 79.0356128,6.25536 79.0356128,10.53696 L79.0356128,15.57216 C79.0356128,16.17576 78.5769035,16.69176 77.9469267,16.69176 C77.3145547,16.69176 76.8282988,16.20216 76.8282988,15.57216 L76.8282988,2.60856" id="Fill-3" fill="#FFFFFF"></path>
                <path d="M96.6110058,8.32968 C96.3870407,5.65608 94.8671919,3.32688 91.9748081,3.32688 C89.4465174,3.32688 87.5350291,5.45688 87.2583663,8.32968 L96.6110058,8.32968 Z M92.3125523,16.83168 C88.3230988,16.83168 85.0642267,13.73208 85.0642267,9.18288 L85.0642267,9.12408 C85.0642267,4.89048 88.0140988,1.47768 92.0322965,1.47768 C96.3283547,1.47768 98.7752035,5.02848 98.7752035,8.92608 C98.7752035,9.52488 98.2925407,9.95208 97.7619709,9.95208 L87.2583663,9.95208 C87.5649709,13.13328 89.783064,14.92608 92.3700407,14.92608 C94.16775,14.92608 95.4863895,14.21448 96.5547151,13.21968 C96.7223895,13.07928 96.9200058,12.96528 97.1739128,12.96528 C97.7056802,12.96528 98.1284593,13.39128 98.1284593,13.90488 C98.1284593,14.15928 98.0170756,14.41608 97.7895174,14.61288 C96.4145872,15.94848 94.7845523,16.83168 92.3125523,16.83168 L92.3125523,16.83168 Z" id="Fill-5" fill="#FFFFFF"></path>
                <path d="M72.0702977,11.08296 L72.0702977,9.65136 C70.9828093,9.33576 69.5228442,9.01896 67.7239372,9.01896 C64.954914,9.01896 63.4087163,10.22376 63.4087163,12.08376 L63.4087163,12.14136 C63.4087163,14.00256 65.1225884,15.09096 67.1251,15.09096 C69.8390302,15.09096 72.0702977,13.42896 72.0702977,11.08296 M61.1786465,12.22896 L61.1786465,12.17016 C61.1786465,9.04896 63.7524488,7.38696 67.4951814,7.38696 C69.3827163,7.38696 70.7253093,7.64496 72.0439488,8.01816 L72.0439488,7.50096 C72.0439488,4.83936 70.4091233,3.46296 67.6401,3.46296 C66.1525884,3.46296 65.2866698,3.65256 64.1991814,4.13736 C64.0578558,4.19616 63.9141349,4.22496 63.8015535,4.22496 C63.2865535,4.22496 62.8278442,3.79416 62.8278442,3.27936 C62.8278442,2.82216 63.0266581,2.54016 63.4290767,2.36136 C64.8842512,1.72896 65.9825186,1.51776 67.8676581,1.51776 C69.954007,1.51776 71.5541,2.06016 72.639193,3.14976 C73.6404488,4.15176 74.1554488,5.58336 74.1554488,7.47456 L74.1554488,15.64656 C74.1554488,16.27416 73.6979372,16.73376 73.095507,16.73376 C72.4691233,16.73376 72.0439488,16.27416 72.0439488,15.70296 L72.0439488,14.28936 C71.0127512,15.63696 69.2964837,16.83936 66.6999256,16.83936 C63.9536581,16.83936 61.1786465,15.26376 61.1786465,12.22896" id="Fill-7" fill="#FFFFFF"></path>
                <g id="Group-11" transform="translate(0.000000, 0.057960)">
                    <mask id="mask-2" fill="white">
                        <use xlink:href="#path-1"></use>
                    </mask>
                    <g id="Clip-10"></g>
                    <path d="M4.03568372,2.38716 C3.55182326,1.32396 2.35534651,0.84156 1.23791628,1.33956 C0.119288372,1.83756 -0.291513953,3.08076 0.213904651,4.14516 L4.90399767,14.35956 C5.64176512,15.96036 6.41905581,16.80036 7.87782326,16.80036 C9.43719535,16.80036 10.1162767,15.88596 10.8528465,14.35956 C10.8528465,14.35956 14.9441023,5.43396 14.9860209,5.34036 C15.0279395,5.24556 15.158486,4.95756 15.5752767,4.95996 C15.927393,4.96356 16.2232186,5.24436 16.2232186,5.62116 L16.2232186,14.35116 C16.2232186,15.69636 16.9681721,16.80036 18.4005907,16.80036 C19.8318116,16.80036 20.606707,15.69636 20.606707,14.35116 L20.606707,7.20876 C20.606707,5.83116 21.5911953,4.93716 22.9337884,4.93716 C24.2763814,4.93716 25.1698465,5.86236 25.1698465,7.20876 L25.1698465,14.35116 C25.1698465,15.69636 25.918393,16.80036 27.3484163,16.80036 C28.7796372,16.80036 29.5581256,15.69636 29.5581256,14.35116 L29.5581256,7.20876 C29.5581256,5.83116 30.5390209,4.93716 31.8828116,4.93716 C33.2230093,4.93716 34.1200674,5.86236 34.1200674,7.20876 L34.1200674,14.35116 C34.1200674,15.69636 34.8662186,16.80036 36.2974395,16.80036 C37.7286605,16.80036 38.5047535,15.69636 38.5047535,14.35116 L38.5047535,6.22236 C38.5047535,3.23436 36.108207,1.14156 33.2230093,1.14156 C30.3414047,1.14156 28.5365093,3.13956 28.5365093,3.13956 C27.5771721,1.89276 26.2549395,1.14396 24.0176837,1.14396 C21.6558698,1.14396 19.5886837,3.13956 19.5886837,3.13956 C18.6293465,1.89276 16.9945209,1.14396 15.6411488,1.14396 C13.5488116,1.14396 11.8876372,2.06556 10.873207,4.38876 L7.87782326,11.46276 L4.03568372,2.38716" id="Fill-9" fill="#FFFFFF" mask="url(#mask-2)"></path>
                </g>
                <g id="Group-14" transform="translate(98.209302, 1.257960)">
                    <mask id="mask-4" fill="white">
                        <use xlink:href="#path-3"></use>
                    </mask>
                    <g id="Clip-13"></g>
                    <path d="M4.04849884,2.06016 L4.04849884,2.05536 C4.04849884,1.23336 3.41492907,0.55896 2.5705686,0.55896 C1.73219651,0.55896 1.08904535,1.24416 1.08904535,2.06016 L1.08904535,2.06976 C1.08904535,2.88936 1.72620814,3.56376 2.5705686,3.56376 C3.40534767,3.56376 4.04849884,2.87856 4.04849884,2.06016 M0.742917442,2.07216 L0.742917442,2.06016 C0.742917442,1.06056 1.55254535,0.21936 2.5705686,0.21936 C3.60176628,0.21936 4.39941744,1.05216 4.39941744,2.05176 L4.39941744,2.06016 C4.39941744,3.06336 3.59218488,3.90456 2.5705686,3.90456 C1.53817326,3.90456 0.742917442,3.07416 0.742917442,2.07216" id="Fill-12" fill="#FFFFFF" mask="url(#mask-4)"></path>
                </g>
                <path d="M100.865984,3.25956 C101.055216,3.25956 101.160612,3.15996 101.160612,3.00876 L101.160612,3.00276 C101.160612,2.83716 101.04803,2.74956 100.858798,2.74956 L100.470751,2.74956 L100.470751,3.25956 L100.865984,3.25956 Z M100.080309,2.59356 C100.080309,2.48436 100.166542,2.39796 100.276728,2.39796 L100.887542,2.39796 C101.116298,2.39796 101.293553,2.46276 101.40374,2.57916 C101.504344,2.67756 101.55824,2.81796 101.55824,2.98356 L101.55824,2.98836 C101.55824,3.26796 101.418112,3.43836 101.204926,3.52836 L101.474402,3.85836 C101.51153,3.90636 101.537879,3.94716 101.537879,4.00716 C101.537879,4.11516 101.445658,4.18716 101.35224,4.18716 C101.266007,4.18716 101.207321,4.14276 101.160612,4.08636 L100.782147,3.60636 L100.470751,3.60636 L100.470751,3.99276 C100.470751,4.10076 100.386914,4.18716 100.276728,4.18716 C100.166542,4.18716 100.080309,4.10076 100.080309,3.99276 L100.080309,2.59356 Z" id="Fill-15" fill="#FFFFFF"></path>
            </g>
        </g>
    </g>
</svg>